M48
; DRILL file {KiCad 8.0.4} date 2025-07-31T13:43:49+0200
; FORMAT={-:-/ absolute / inch / decimal}
; #@! TF.CreationDate,2025-07-31T13:43:49+02:00
; #@! TF.GenerationSoftware,Kicad,Pcbnew,8.0.4
; #@! TF.FileFunction,Plated,1,2,PTH
FMAT,2
INCH
; #@! TA.AperFunction,Plated,PTH,ViaDrill
T1C0.0118
; #@! TA.AperFunction,Plated,PTH,ComponentDrill
T2C0.0236
; #@! TA.AperFunction,Plated,PTH,ComponentDrill
T3C0.0394
%
G90
G05
T1
X0.3756Y3.5394
X0.4256Y2.0394
X0.5756Y2.0394
X1.0756Y3.8394
X1.0756Y1.3394
X1.1256Y3.4394
X1.1256Y2.8394
X1.1256Y2.5394
X2.1256Y3.8394
X2.1256Y3.4394
X2.1256Y2.8394
X2.1256Y2.5394
X2.1256Y2.0394
X2.1256Y1.6894
X2.1256Y1.5894
X2.1256Y1.3394
X2.7756Y4.0394
X2.7756Y3.8894
X2.7756Y3.6894
X2.7756Y3.4894
X2.7756Y3.3894
X2.8256Y2.3894
X2.8256Y2.2894
X2.8256Y1.6894
X2.8256Y1.5894
X3.0735Y5.5414
X3.2275Y5.5416
X3.3256Y2.5394
X3.4756Y3.2394
X4.0256Y4.0394
X4.6756Y4.0394
X4.6756Y3.6894
X4.6756Y3.3894
X4.6756Y3.2394
X4.6756Y3.0894
X4.7256Y2.4894
X4.7256Y2.0394
X5.7756Y2.0394
X5.8256Y3.5894
X5.8256Y3.3608
T3
X0.4756Y3.8894
X0.4756Y3.7894
X0.6756Y3.6894
X0.6756Y3.5894
X0.6756Y3.4894
X0.6756Y3.3894
X0.6756Y3.2894
X0.6756Y3.1894
X0.6756Y3.0894
X0.6756Y2.9894
X0.6756Y2.7894
X0.6756Y2.6894
X0.6756Y2.5894
X0.6756Y2.4894
X0.6756Y2.3894
X0.6756Y2.2894
X0.6756Y2.1894
X0.6756Y2.0894
X0.6756Y1.9894
X0.6756Y1.8894
X0.6756Y1.7894
X0.6756Y1.6894
X0.6756Y1.5894
X0.6756Y1.4894
X0.6756Y1.3894
X0.7756Y3.6894
X0.7756Y3.5894
X0.7756Y3.4894
X0.7756Y3.3894
X0.7756Y3.2894
X0.7756Y3.1894
X0.7756Y3.0894
X0.7756Y2.9894
X0.7756Y2.7894
X0.7756Y2.6894
X0.7756Y2.5894
X0.7756Y2.4894
X0.7756Y2.3894
X0.7756Y2.2894
X0.7756Y2.1894
X0.7756Y2.0894
X0.7756Y1.9894
X0.7756Y1.8894
X0.7756Y1.7894
X0.7756Y1.6894
X0.7756Y1.5894
X0.7756Y1.4894
X0.7756Y1.3894
X2.4756Y4.0394
X2.4756Y3.9394
X2.4756Y3.8394
X2.4756Y3.7394
X2.4756Y3.6394
X2.4756Y3.5394
X2.4756Y3.4394
X2.4756Y3.3394
X2.4756Y3.2394
X2.4756Y3.1394
X2.4756Y2.9894
X2.4756Y2.8894
X2.4756Y2.7894
X2.4756Y2.6894
X2.4756Y2.5894
X2.4756Y2.4894
X2.4756Y2.3894
X2.4756Y2.2894
X2.4756Y2.1894
X2.4756Y2.0894
X2.4756Y1.9894
X2.4756Y1.8894
X2.4756Y1.7894
X2.4756Y1.6894
X2.4756Y1.5894
X2.4756Y1.4894
X2.4756Y1.3894
X2.5756Y4.0394
X2.5756Y3.9394
X2.5756Y3.8394
X2.5756Y3.7394
X2.5756Y3.6394
X2.5756Y3.5394
X2.5756Y3.4394
X2.5756Y3.3394
X2.5756Y3.2394
X2.5756Y3.1394
X2.5756Y2.9894
X2.5756Y2.8894
X2.5756Y2.7894
X2.5756Y2.6894
X2.5756Y2.5894
X2.5756Y2.4894
X2.5756Y2.3894
X2.5756Y2.2894
X2.5756Y2.1894
X2.5756Y2.0894
X2.5756Y1.9894
X2.5756Y1.8894
X2.5756Y1.7894
X2.5756Y1.6894
X2.5756Y1.5894
X2.5756Y1.4894
X2.5756Y1.3894
X3.3256Y3.8894
X3.3256Y3.7894
X3.4256Y3.8894
X3.4256Y3.7894
X3.6256Y3.6894
X3.6256Y3.5894
X3.6256Y3.4894
X3.6256Y3.3894
X3.6256Y3.2894
X3.6256Y3.1894
X3.6256Y3.0894
X3.6256Y2.9894
X3.6256Y2.7894
X3.6256Y2.6894
X3.6256Y2.5894
X3.6256Y2.4894
X3.6256Y2.3894
X3.6256Y2.2894
X3.6256Y2.1894
X3.6256Y2.0894
X3.6256Y1.9894
X3.6256Y1.8894
X3.6256Y1.7894
X3.6256Y1.6894
X3.6256Y1.5894
X3.6256Y1.4894
X3.6256Y1.3894
X3.7256Y3.6894
X3.7256Y3.5894
X3.7256Y3.4894
X3.7256Y3.3894
X3.7256Y3.2894
X3.7256Y3.1894
X3.7256Y3.0894
X3.7256Y2.9894
X3.7256Y2.7894
X3.7256Y2.6894
X3.7256Y2.5894
X3.7256Y2.4894
X3.7256Y2.3894
X3.7256Y2.2894
X3.7256Y2.1894
X3.7256Y2.0894
X3.7256Y1.9894
X3.7256Y1.8894
X3.7256Y1.7894
X3.7256Y1.6894
X3.7256Y1.5894
X3.7256Y1.4894
X3.7256Y1.3894
X5.4256Y4.0394
X5.4256Y3.9394
X5.4256Y3.8394
X5.4256Y3.7394
X5.4256Y3.6394
X5.4256Y3.5394
X5.4256Y3.4394
X5.4256Y3.3394
X5.4256Y3.2394
X5.4256Y3.1394
X5.4256Y2.9894
X5.4256Y2.8894
X5.4256Y2.7894
X5.4256Y2.6894
X5.4256Y2.5894
X5.4256Y2.4894
X5.4256Y2.3894
X5.4256Y2.2894
X5.4256Y2.1894
X5.4256Y2.0894
X5.4256Y1.9894
X5.4256Y1.8894
X5.4256Y1.7894
X5.4256Y1.6894
X5.4256Y1.5894
X5.4256Y1.4894
X5.4256Y1.3894
X5.5256Y4.0394
X5.5256Y3.9394
X5.5256Y3.8394
X5.5256Y3.7394
X5.5256Y3.6394
X5.5256Y3.5394
X5.5256Y3.4394
X5.5256Y3.3394
X5.5256Y3.2394
X5.5256Y3.1394
X5.5256Y2.9894
X5.5256Y2.8894
X5.5256Y2.7894
X5.5256Y2.6894
X5.5256Y2.5894
X5.5256Y2.4894
X5.5256Y2.3894
X5.5256Y2.2894
X5.5256Y2.1894
X5.5256Y2.0894
X5.5256Y1.9894
X5.5256Y1.8894
X5.5256Y1.7894
X5.5256Y1.6894
X5.5256Y1.5894
X5.5256Y1.4894
X5.5256Y1.3894
T2
G00X2.9605Y5.7891
M15
G01X2.9605Y5.8127
M16
G05
G00X2.9605Y5.6394
M15
G01X2.9605Y5.6631
M16
G05
G00X3.3007Y5.7891
M15
G01X3.3007Y5.8127
M16
G05
G00X3.3007Y5.6394
M15
G01X3.3007Y5.6631
M16
G05
M30
