%TF.GenerationSoftware,KiCad,Pcbnew,8.0.4*%
%TF.CreationDate,2025-07-31T13:43:54+02:00*%
%TF.ProjectId,integration_test_board,696e7465-6772-4617-9469-6f6e5f746573,rev?*%
%TF.SameCoordinates,PX1312d00PYaba9500*%
%TF.FileFunction,Soldermask,Bot*%
%TF.FilePolarity,Negative*%
%FSLAX46Y46*%
G04 Gerber Fmt 4.6, Leading zero omitted, Abs format (unit mm)*
G04 Created by KiCad (PCBNEW 8.0.4) date 2025-07-31 13:43:54*
%MOMM*%
%LPD*%
G01*
G04 APERTURE LIST*
%ADD10C,3.000000*%
%ADD11R,1.700000X1.700000*%
%ADD12O,1.700000X1.700000*%
%ADD13O,1.100000X1.700000*%
G04 APERTURE END LIST*
D10*
%TO.C,H4*%
X158000000Y4000000D03*
%TD*%
%TO.C,H3*%
X158000000Y146000000D03*
%TD*%
%TO.C,H2*%
X4000000Y4000000D03*
%TD*%
%TO.C,H1*%
X4000000Y146000000D03*
%TD*%
D11*
%TO.C,J10*%
X84470000Y98790000D03*
D12*
X87010000Y98790000D03*
X84470000Y96250000D03*
X87010000Y96250000D03*
%TD*%
D11*
%TO.C,J4*%
X137810000Y102600000D03*
D12*
X140350000Y102600000D03*
X137810000Y100060000D03*
X140350000Y100060000D03*
X137810000Y97520000D03*
X140350000Y97520000D03*
X137810000Y94980000D03*
X140350000Y94980000D03*
X137810000Y92440000D03*
X140350000Y92440000D03*
X137810000Y89900000D03*
X140350000Y89900000D03*
X137810000Y87360000D03*
X140350000Y87360000D03*
X137810000Y84820000D03*
X140350000Y84820000D03*
X137810000Y82280000D03*
X140350000Y82280000D03*
X137810000Y79740000D03*
X140350000Y79740000D03*
%TD*%
D11*
%TO.C,J8*%
X137810000Y75930000D03*
D12*
X140350000Y75930000D03*
X137810000Y73390000D03*
X140350000Y73390000D03*
X137810000Y70850000D03*
X140350000Y70850000D03*
X137810000Y68310000D03*
X140350000Y68310000D03*
X137810000Y65770000D03*
X140350000Y65770000D03*
X137810000Y63230000D03*
X140350000Y63230000D03*
X137810000Y60690000D03*
X140350000Y60690000D03*
X137810000Y58150000D03*
X140350000Y58150000D03*
X137810000Y55610000D03*
X140350000Y55610000D03*
X137810000Y53070000D03*
X140350000Y53070000D03*
X137810000Y50530000D03*
X140350000Y50530000D03*
X137810000Y47990000D03*
X140350000Y47990000D03*
X137810000Y45450000D03*
X140350000Y45450000D03*
X137810000Y42910000D03*
X140350000Y42910000D03*
X137810000Y40370000D03*
X140350000Y40370000D03*
X137810000Y37830000D03*
X140350000Y37830000D03*
X137810000Y35290000D03*
X140350000Y35290000D03*
%TD*%
D11*
%TO.C,J7*%
X62880000Y75930000D03*
D12*
X65420000Y75930000D03*
X62880000Y73390000D03*
X65420000Y73390000D03*
X62880000Y70850000D03*
X65420000Y70850000D03*
X62880000Y68310000D03*
X65420000Y68310000D03*
X62880000Y65770000D03*
X65420000Y65770000D03*
X62880000Y63230000D03*
X65420000Y63230000D03*
X62880000Y60690000D03*
X65420000Y60690000D03*
X62880000Y58150000D03*
X65420000Y58150000D03*
X62880000Y55610000D03*
X65420000Y55610000D03*
X62880000Y53070000D03*
X65420000Y53070000D03*
X62880000Y50530000D03*
X65420000Y50530000D03*
X62880000Y47990000D03*
X65420000Y47990000D03*
X62880000Y45450000D03*
X65420000Y45450000D03*
X62880000Y42910000D03*
X65420000Y42910000D03*
X62880000Y40370000D03*
X65420000Y40370000D03*
X62880000Y37830000D03*
X65420000Y37830000D03*
X62880000Y35290000D03*
X65420000Y35290000D03*
%TD*%
D11*
%TO.C,J6*%
X92090000Y70850000D03*
D12*
X94630000Y70850000D03*
X92090000Y68310000D03*
X94630000Y68310000D03*
X92090000Y65770000D03*
X94630000Y65770000D03*
X92090000Y63230000D03*
X94630000Y63230000D03*
X92090000Y60690000D03*
X94630000Y60690000D03*
X92090000Y58150000D03*
X94630000Y58150000D03*
X92090000Y55610000D03*
X94630000Y55610000D03*
X92090000Y53070000D03*
X94630000Y53070000D03*
X92090000Y50530000D03*
X94630000Y50530000D03*
X92090000Y47990000D03*
X94630000Y47990000D03*
X92090000Y45450000D03*
X94630000Y45450000D03*
X92090000Y42910000D03*
X94630000Y42910000D03*
X92090000Y40370000D03*
X94630000Y40370000D03*
X92090000Y37830000D03*
X94630000Y37830000D03*
X92090000Y35290000D03*
X94630000Y35290000D03*
%TD*%
D11*
%TO.C,J5*%
X17160000Y70850000D03*
D12*
X19700000Y70850000D03*
X17160000Y68310000D03*
X19700000Y68310000D03*
X17160000Y65770000D03*
X19700000Y65770000D03*
X17160000Y63230000D03*
X19700000Y63230000D03*
X17160000Y60690000D03*
X19700000Y60690000D03*
X17160000Y58150000D03*
X19700000Y58150000D03*
X17160000Y55610000D03*
X19700000Y55610000D03*
X17160000Y53070000D03*
X19700000Y53070000D03*
X17160000Y50530000D03*
X19700000Y50530000D03*
X17160000Y47990000D03*
X19700000Y47990000D03*
X17160000Y45450000D03*
X19700000Y45450000D03*
X17160000Y42910000D03*
X19700000Y42910000D03*
X17160000Y40370000D03*
X19700000Y40370000D03*
X17160000Y37830000D03*
X19700000Y37830000D03*
X17160000Y35290000D03*
X19700000Y35290000D03*
%TD*%
D13*
%TO.C,J11*%
X75197000Y147342000D03*
X75197000Y143542000D03*
X83837000Y147342000D03*
X83837000Y143542000D03*
%TD*%
D12*
%TO.C,J9*%
X12080000Y96250000D03*
D11*
X12080000Y98790000D03*
%TD*%
%TO.C,J2*%
X92090000Y93710000D03*
D12*
X94630000Y93710000D03*
X92090000Y91170000D03*
X94630000Y91170000D03*
X92090000Y88630000D03*
X94630000Y88630000D03*
X92090000Y86090000D03*
X94630000Y86090000D03*
X92090000Y83550000D03*
X94630000Y83550000D03*
X92090000Y81010000D03*
X94630000Y81010000D03*
X92090000Y78470000D03*
X94630000Y78470000D03*
X92090000Y75930000D03*
X94630000Y75930000D03*
%TD*%
D11*
%TO.C,J3*%
X62880000Y102600000D03*
D12*
X65420000Y102600000D03*
X62880000Y100060000D03*
X65420000Y100060000D03*
X62880000Y97520000D03*
X65420000Y97520000D03*
X62880000Y94980000D03*
X65420000Y94980000D03*
X62880000Y92440000D03*
X65420000Y92440000D03*
X62880000Y89900000D03*
X65420000Y89900000D03*
X62880000Y87360000D03*
X65420000Y87360000D03*
X62880000Y84820000D03*
X65420000Y84820000D03*
X62880000Y82280000D03*
X65420000Y82280000D03*
X62880000Y79740000D03*
X65420000Y79740000D03*
%TD*%
D11*
%TO.C,J1*%
X17160000Y93710000D03*
D12*
X19700000Y93710000D03*
X17160000Y91170000D03*
X19700000Y91170000D03*
X17160000Y88630000D03*
X19700000Y88630000D03*
X17160000Y86090000D03*
X19700000Y86090000D03*
X17160000Y83550000D03*
X19700000Y83550000D03*
X17160000Y81010000D03*
X19700000Y81010000D03*
X17160000Y78470000D03*
X19700000Y78470000D03*
X17160000Y75930000D03*
X19700000Y75930000D03*
%TD*%
M02*
