%TF.GenerationSoftware,KiCad,Pcbnew,8.0.4*%
%TF.CreationDate,2025-07-31T13:43:54+02:00*%
%TF.ProjectId,integration_test_board,696e7465-6772-4617-9469-6f6e5f746573,rev?*%
%TF.SameCoordinates,PX1312d00PYaba9500*%
%TF.FileFunction,Legend,Top*%
%TF.FilePolarity,Positive*%
%FSLAX46Y46*%
G04 Gerber Fmt 4.6, Leading zero omitted, Abs format (unit mm)*
G04 Created by KiCad (PCBNEW 8.0.4) date 2025-07-31 13:43:54*
%MOMM*%
%LPD*%
G01*
G04 APERTURE LIST*
%ADD10C,0.100000*%
%ADD11C,0.150000*%
%ADD12C,0.120000*%
G04 APERTURE END LIST*
D10*
X49052419Y114619599D02*
X49766704Y114619599D01*
X49766704Y114619599D02*
X49909561Y114571980D01*
X49909561Y114571980D02*
X50004800Y114476742D01*
X50004800Y114476742D02*
X50052419Y114333885D01*
X50052419Y114333885D02*
X50052419Y114238647D01*
X50052419Y115095790D02*
X49052419Y115095790D01*
X49052419Y115095790D02*
X49052419Y115476742D01*
X49052419Y115476742D02*
X49100038Y115571980D01*
X49100038Y115571980D02*
X49147657Y115619599D01*
X49147657Y115619599D02*
X49242895Y115667218D01*
X49242895Y115667218D02*
X49385752Y115667218D01*
X49385752Y115667218D02*
X49480990Y115619599D01*
X49480990Y115619599D02*
X49528609Y115571980D01*
X49528609Y115571980D02*
X49576228Y115476742D01*
X49576228Y115476742D02*
X49576228Y115095790D01*
X49052419Y116000552D02*
X49052419Y116619599D01*
X49052419Y116619599D02*
X49433371Y116286266D01*
X49433371Y116286266D02*
X49433371Y116429123D01*
X49433371Y116429123D02*
X49480990Y116524361D01*
X49480990Y116524361D02*
X49528609Y116571980D01*
X49528609Y116571980D02*
X49623847Y116619599D01*
X49623847Y116619599D02*
X49861942Y116619599D01*
X49861942Y116619599D02*
X49957180Y116571980D01*
X49957180Y116571980D02*
X50004800Y116524361D01*
X50004800Y116524361D02*
X50052419Y116429123D01*
X50052419Y116429123D02*
X50052419Y116143409D01*
X50052419Y116143409D02*
X50004800Y116048171D01*
X50004800Y116048171D02*
X49957180Y116000552D01*
X50180000Y115300000D02*
X53990000Y115300000D01*
X53990000Y114030000D01*
X50180000Y114030000D01*
X50180000Y115300000D01*
X50180000Y115300000D02*
X51450000Y115300000D01*
X51450000Y114030000D01*
X50180000Y114030000D01*
X50180000Y115300000D01*
G36*
X50180000Y115300000D02*
G01*
X51450000Y115300000D01*
X51450000Y114030000D01*
X50180000Y114030000D01*
X50180000Y115300000D01*
G37*
X129062419Y114619599D02*
X129776704Y114619599D01*
X129776704Y114619599D02*
X129919561Y114571980D01*
X129919561Y114571980D02*
X130014800Y114476742D01*
X130014800Y114476742D02*
X130062419Y114333885D01*
X130062419Y114333885D02*
X130062419Y114238647D01*
X130062419Y115095790D02*
X129062419Y115095790D01*
X129062419Y115095790D02*
X129062419Y115476742D01*
X129062419Y115476742D02*
X129110038Y115571980D01*
X129110038Y115571980D02*
X129157657Y115619599D01*
X129157657Y115619599D02*
X129252895Y115667218D01*
X129252895Y115667218D02*
X129395752Y115667218D01*
X129395752Y115667218D02*
X129490990Y115619599D01*
X129490990Y115619599D02*
X129538609Y115571980D01*
X129538609Y115571980D02*
X129586228Y115476742D01*
X129586228Y115476742D02*
X129586228Y115095790D01*
X129062419Y116000552D02*
X129062419Y116619599D01*
X129062419Y116619599D02*
X129443371Y116286266D01*
X129443371Y116286266D02*
X129443371Y116429123D01*
X129443371Y116429123D02*
X129490990Y116524361D01*
X129490990Y116524361D02*
X129538609Y116571980D01*
X129538609Y116571980D02*
X129633847Y116619599D01*
X129633847Y116619599D02*
X129871942Y116619599D01*
X129871942Y116619599D02*
X129967180Y116571980D01*
X129967180Y116571980D02*
X130014800Y116524361D01*
X130014800Y116524361D02*
X130062419Y116429123D01*
X130062419Y116429123D02*
X130062419Y116143409D01*
X130062419Y116143409D02*
X130014800Y116048171D01*
X130014800Y116048171D02*
X129967180Y116000552D01*
X130190000Y115300000D02*
X131460000Y115300000D01*
X131460000Y114030000D01*
X130190000Y114030000D01*
X130190000Y115300000D01*
G36*
X130190000Y115300000D02*
G01*
X131460000Y115300000D01*
X131460000Y114030000D01*
X130190000Y114030000D01*
X130190000Y115300000D01*
G37*
X130190000Y115300000D02*
X134000000Y115300000D01*
X134000000Y114030000D01*
X130190000Y114030000D01*
X130190000Y115300000D01*
X131840116Y138566557D02*
X134162402Y138566557D01*
X133001259Y134502557D02*
X133001259Y138566557D01*
X135517069Y136631319D02*
X136871735Y136631319D01*
X137452307Y134502557D02*
X135517069Y134502557D01*
X135517069Y134502557D02*
X135517069Y138566557D01*
X135517069Y138566557D02*
X137452307Y138566557D01*
X139000497Y134696080D02*
X139581068Y134502557D01*
X139581068Y134502557D02*
X140548687Y134502557D01*
X140548687Y134502557D02*
X140935735Y134696080D01*
X140935735Y134696080D02*
X141129259Y134889604D01*
X141129259Y134889604D02*
X141322782Y135276652D01*
X141322782Y135276652D02*
X141322782Y135663700D01*
X141322782Y135663700D02*
X141129259Y136050747D01*
X141129259Y136050747D02*
X140935735Y136244271D01*
X140935735Y136244271D02*
X140548687Y136437795D01*
X140548687Y136437795D02*
X139774592Y136631319D01*
X139774592Y136631319D02*
X139387544Y136824842D01*
X139387544Y136824842D02*
X139194021Y137018366D01*
X139194021Y137018366D02*
X139000497Y137405414D01*
X139000497Y137405414D02*
X139000497Y137792461D01*
X139000497Y137792461D02*
X139194021Y138179509D01*
X139194021Y138179509D02*
X139387544Y138373033D01*
X139387544Y138373033D02*
X139774592Y138566557D01*
X139774592Y138566557D02*
X140742211Y138566557D01*
X140742211Y138566557D02*
X141322782Y138373033D01*
X142483925Y138566557D02*
X144806211Y138566557D01*
X143645068Y134502557D02*
X143645068Y138566557D01*
X146160878Y136631319D02*
X147515544Y136631319D01*
X148096116Y134502557D02*
X146160878Y134502557D01*
X146160878Y134502557D02*
X146160878Y138566557D01*
X146160878Y138566557D02*
X148096116Y138566557D01*
X149837830Y134502557D02*
X149837830Y138566557D01*
X149837830Y138566557D02*
X150805449Y138566557D01*
X150805449Y138566557D02*
X151386020Y138373033D01*
X151386020Y138373033D02*
X151773068Y137985985D01*
X151773068Y137985985D02*
X151966591Y137598938D01*
X151966591Y137598938D02*
X152160115Y136824842D01*
X152160115Y136824842D02*
X152160115Y136244271D01*
X152160115Y136244271D02*
X151966591Y135470176D01*
X151966591Y135470176D02*
X151773068Y135083128D01*
X151773068Y135083128D02*
X151386020Y134696080D01*
X151386020Y134696080D02*
X150805449Y134502557D01*
X150805449Y134502557D02*
X149837830Y134502557D01*
X7452836Y138566557D02*
X9775122Y138566557D01*
X8613979Y134502557D02*
X8613979Y138566557D01*
X11129789Y136631319D02*
X12484455Y136631319D01*
X13065027Y134502557D02*
X11129789Y134502557D01*
X11129789Y134502557D02*
X11129789Y138566557D01*
X11129789Y138566557D02*
X13065027Y138566557D01*
X14613217Y134696080D02*
X15193788Y134502557D01*
X15193788Y134502557D02*
X16161407Y134502557D01*
X16161407Y134502557D02*
X16548455Y134696080D01*
X16548455Y134696080D02*
X16741979Y134889604D01*
X16741979Y134889604D02*
X16935502Y135276652D01*
X16935502Y135276652D02*
X16935502Y135663700D01*
X16935502Y135663700D02*
X16741979Y136050747D01*
X16741979Y136050747D02*
X16548455Y136244271D01*
X16548455Y136244271D02*
X16161407Y136437795D01*
X16161407Y136437795D02*
X15387312Y136631319D01*
X15387312Y136631319D02*
X15000264Y136824842D01*
X15000264Y136824842D02*
X14806741Y137018366D01*
X14806741Y137018366D02*
X14613217Y137405414D01*
X14613217Y137405414D02*
X14613217Y137792461D01*
X14613217Y137792461D02*
X14806741Y138179509D01*
X14806741Y138179509D02*
X15000264Y138373033D01*
X15000264Y138373033D02*
X15387312Y138566557D01*
X15387312Y138566557D02*
X16354931Y138566557D01*
X16354931Y138566557D02*
X16935502Y138373033D01*
X18096645Y138566557D02*
X20418931Y138566557D01*
X19257788Y134502557D02*
X19257788Y138566557D01*
X21773598Y136631319D02*
X23128264Y136631319D01*
X23708836Y134502557D02*
X21773598Y134502557D01*
X21773598Y134502557D02*
X21773598Y138566557D01*
X21773598Y138566557D02*
X23708836Y138566557D01*
X27772835Y134502557D02*
X26418169Y136437795D01*
X25450550Y134502557D02*
X25450550Y138566557D01*
X25450550Y138566557D02*
X26998740Y138566557D01*
X26998740Y138566557D02*
X27385788Y138373033D01*
X27385788Y138373033D02*
X27579311Y138179509D01*
X27579311Y138179509D02*
X27772835Y137792461D01*
X27772835Y137792461D02*
X27772835Y137211890D01*
X27772835Y137211890D02*
X27579311Y136824842D01*
X27579311Y136824842D02*
X27385788Y136631319D01*
X27385788Y136631319D02*
X26998740Y136437795D01*
X26998740Y136437795D02*
X25450550Y136437795D01*
X10420455Y147253879D02*
X10420455Y148318260D01*
X10420455Y148318260D02*
X10323693Y148511783D01*
X10323693Y148511783D02*
X10130169Y148608545D01*
X10130169Y148608545D02*
X9743122Y148608545D01*
X9743122Y148608545D02*
X9549598Y148511783D01*
X10420455Y147350640D02*
X10226931Y147253879D01*
X10226931Y147253879D02*
X9743122Y147253879D01*
X9743122Y147253879D02*
X9549598Y147350640D01*
X9549598Y147350640D02*
X9452836Y147544164D01*
X9452836Y147544164D02*
X9452836Y147737688D01*
X9452836Y147737688D02*
X9549598Y147931212D01*
X9549598Y147931212D02*
X9743122Y148027974D01*
X9743122Y148027974D02*
X10226931Y148027974D01*
X10226931Y148027974D02*
X10420455Y148124736D01*
X11388074Y147253879D02*
X11388074Y148608545D01*
X11388074Y148415021D02*
X11484836Y148511783D01*
X11484836Y148511783D02*
X11678360Y148608545D01*
X11678360Y148608545D02*
X11968645Y148608545D01*
X11968645Y148608545D02*
X12162169Y148511783D01*
X12162169Y148511783D02*
X12258931Y148318260D01*
X12258931Y148318260D02*
X12258931Y147253879D01*
X12258931Y148318260D02*
X12355693Y148511783D01*
X12355693Y148511783D02*
X12549217Y148608545D01*
X12549217Y148608545D02*
X12839503Y148608545D01*
X12839503Y148608545D02*
X13033026Y148511783D01*
X13033026Y148511783D02*
X13129788Y148318260D01*
X13129788Y148318260D02*
X13129788Y147253879D01*
X14097407Y148608545D02*
X14097407Y146576545D01*
X14097407Y148511783D02*
X14290931Y148608545D01*
X14290931Y148608545D02*
X14677978Y148608545D01*
X14677978Y148608545D02*
X14871502Y148511783D01*
X14871502Y148511783D02*
X14968264Y148415021D01*
X14968264Y148415021D02*
X15065026Y148221498D01*
X15065026Y148221498D02*
X15065026Y147640926D01*
X15065026Y147640926D02*
X14968264Y147447402D01*
X14968264Y147447402D02*
X14871502Y147350640D01*
X14871502Y147350640D02*
X14677978Y147253879D01*
X14677978Y147253879D02*
X14290931Y147253879D01*
X14290931Y147253879D02*
X14097407Y147350640D01*
X15935883Y148027974D02*
X17484074Y148027974D01*
X18451693Y147253879D02*
X18451693Y149285879D01*
X19322550Y147253879D02*
X19322550Y148318260D01*
X19322550Y148318260D02*
X19225788Y148511783D01*
X19225788Y148511783D02*
X19032264Y148608545D01*
X19032264Y148608545D02*
X18741979Y148608545D01*
X18741979Y148608545D02*
X18548455Y148511783D01*
X18548455Y148511783D02*
X18451693Y148415021D01*
X21161026Y147253879D02*
X21161026Y148318260D01*
X21161026Y148318260D02*
X21064264Y148511783D01*
X21064264Y148511783D02*
X20870740Y148608545D01*
X20870740Y148608545D02*
X20483693Y148608545D01*
X20483693Y148608545D02*
X20290169Y148511783D01*
X21161026Y147350640D02*
X20967502Y147253879D01*
X20967502Y147253879D02*
X20483693Y147253879D01*
X20483693Y147253879D02*
X20290169Y147350640D01*
X20290169Y147350640D02*
X20193407Y147544164D01*
X20193407Y147544164D02*
X20193407Y147737688D01*
X20193407Y147737688D02*
X20290169Y147931212D01*
X20290169Y147931212D02*
X20483693Y148027974D01*
X20483693Y148027974D02*
X20967502Y148027974D01*
X20967502Y148027974D02*
X21161026Y148124736D01*
X22418931Y147253879D02*
X22225407Y147350640D01*
X22225407Y147350640D02*
X22128645Y147544164D01*
X22128645Y147544164D02*
X22128645Y149285879D01*
X23193026Y148027974D02*
X24741217Y148027974D01*
X25612074Y147350640D02*
X25805598Y147253879D01*
X25805598Y147253879D02*
X26192646Y147253879D01*
X26192646Y147253879D02*
X26386169Y147350640D01*
X26386169Y147350640D02*
X26482931Y147544164D01*
X26482931Y147544164D02*
X26482931Y147640926D01*
X26482931Y147640926D02*
X26386169Y147834450D01*
X26386169Y147834450D02*
X26192646Y147931212D01*
X26192646Y147931212D02*
X25902360Y147931212D01*
X25902360Y147931212D02*
X25708836Y148027974D01*
X25708836Y148027974D02*
X25612074Y148221498D01*
X25612074Y148221498D02*
X25612074Y148318260D01*
X25612074Y148318260D02*
X25708836Y148511783D01*
X25708836Y148511783D02*
X25902360Y148608545D01*
X25902360Y148608545D02*
X26192646Y148608545D01*
X26192646Y148608545D02*
X26386169Y148511783D01*
X27063502Y148608545D02*
X27837598Y148608545D01*
X27353788Y149285879D02*
X27353788Y147544164D01*
X27353788Y147544164D02*
X27450550Y147350640D01*
X27450550Y147350640D02*
X27644074Y147253879D01*
X27644074Y147253879D02*
X27837598Y147253879D01*
X30063121Y147253879D02*
X30063121Y149285879D01*
X31030740Y148608545D02*
X31030740Y147253879D01*
X31030740Y148415021D02*
X31127502Y148511783D01*
X31127502Y148511783D02*
X31321026Y148608545D01*
X31321026Y148608545D02*
X31611311Y148608545D01*
X31611311Y148608545D02*
X31804835Y148511783D01*
X31804835Y148511783D02*
X31901597Y148318260D01*
X31901597Y148318260D02*
X31901597Y147253879D01*
X32578930Y148608545D02*
X33353026Y148608545D01*
X32869216Y149285879D02*
X32869216Y147544164D01*
X32869216Y147544164D02*
X32965978Y147350640D01*
X32965978Y147350640D02*
X33159502Y147253879D01*
X33159502Y147253879D02*
X33353026Y147253879D01*
X34804454Y147350640D02*
X34610930Y147253879D01*
X34610930Y147253879D02*
X34223883Y147253879D01*
X34223883Y147253879D02*
X34030359Y147350640D01*
X34030359Y147350640D02*
X33933597Y147544164D01*
X33933597Y147544164D02*
X33933597Y148318260D01*
X33933597Y148318260D02*
X34030359Y148511783D01*
X34030359Y148511783D02*
X34223883Y148608545D01*
X34223883Y148608545D02*
X34610930Y148608545D01*
X34610930Y148608545D02*
X34804454Y148511783D01*
X34804454Y148511783D02*
X34901216Y148318260D01*
X34901216Y148318260D02*
X34901216Y148124736D01*
X34901216Y148124736D02*
X33933597Y147931212D01*
X36642930Y148608545D02*
X36642930Y146963593D01*
X36642930Y146963593D02*
X36546168Y146770069D01*
X36546168Y146770069D02*
X36449406Y146673307D01*
X36449406Y146673307D02*
X36255883Y146576545D01*
X36255883Y146576545D02*
X35965597Y146576545D01*
X35965597Y146576545D02*
X35772073Y146673307D01*
X36642930Y147350640D02*
X36449406Y147253879D01*
X36449406Y147253879D02*
X36062359Y147253879D01*
X36062359Y147253879D02*
X35868835Y147350640D01*
X35868835Y147350640D02*
X35772073Y147447402D01*
X35772073Y147447402D02*
X35675311Y147640926D01*
X35675311Y147640926D02*
X35675311Y148221498D01*
X35675311Y148221498D02*
X35772073Y148415021D01*
X35772073Y148415021D02*
X35868835Y148511783D01*
X35868835Y148511783D02*
X36062359Y148608545D01*
X36062359Y148608545D02*
X36449406Y148608545D01*
X36449406Y148608545D02*
X36642930Y148511783D01*
X37610549Y147253879D02*
X37610549Y148608545D01*
X37610549Y148221498D02*
X37707311Y148415021D01*
X37707311Y148415021D02*
X37804073Y148511783D01*
X37804073Y148511783D02*
X37997597Y148608545D01*
X37997597Y148608545D02*
X38191120Y148608545D01*
X39739311Y147253879D02*
X39739311Y148318260D01*
X39739311Y148318260D02*
X39642549Y148511783D01*
X39642549Y148511783D02*
X39449025Y148608545D01*
X39449025Y148608545D02*
X39061978Y148608545D01*
X39061978Y148608545D02*
X38868454Y148511783D01*
X39739311Y147350640D02*
X39545787Y147253879D01*
X39545787Y147253879D02*
X39061978Y147253879D01*
X39061978Y147253879D02*
X38868454Y147350640D01*
X38868454Y147350640D02*
X38771692Y147544164D01*
X38771692Y147544164D02*
X38771692Y147737688D01*
X38771692Y147737688D02*
X38868454Y147931212D01*
X38868454Y147931212D02*
X39061978Y148027974D01*
X39061978Y148027974D02*
X39545787Y148027974D01*
X39545787Y148027974D02*
X39739311Y148124736D01*
X40416644Y148608545D02*
X41190740Y148608545D01*
X40706930Y149285879D02*
X40706930Y147544164D01*
X40706930Y147544164D02*
X40803692Y147350640D01*
X40803692Y147350640D02*
X40997216Y147253879D01*
X40997216Y147253879D02*
X41190740Y147253879D01*
X41868073Y147253879D02*
X41868073Y148608545D01*
X41868073Y149285879D02*
X41771311Y149189117D01*
X41771311Y149189117D02*
X41868073Y149092355D01*
X41868073Y149092355D02*
X41964835Y149189117D01*
X41964835Y149189117D02*
X41868073Y149285879D01*
X41868073Y149285879D02*
X41868073Y149092355D01*
X43125978Y147253879D02*
X42932454Y147350640D01*
X42932454Y147350640D02*
X42835692Y147447402D01*
X42835692Y147447402D02*
X42738930Y147640926D01*
X42738930Y147640926D02*
X42738930Y148221498D01*
X42738930Y148221498D02*
X42835692Y148415021D01*
X42835692Y148415021D02*
X42932454Y148511783D01*
X42932454Y148511783D02*
X43125978Y148608545D01*
X43125978Y148608545D02*
X43416263Y148608545D01*
X43416263Y148608545D02*
X43609787Y148511783D01*
X43609787Y148511783D02*
X43706549Y148415021D01*
X43706549Y148415021D02*
X43803311Y148221498D01*
X43803311Y148221498D02*
X43803311Y147640926D01*
X43803311Y147640926D02*
X43706549Y147447402D01*
X43706549Y147447402D02*
X43609787Y147350640D01*
X43609787Y147350640D02*
X43416263Y147253879D01*
X43416263Y147253879D02*
X43125978Y147253879D01*
X44674168Y148608545D02*
X44674168Y147253879D01*
X44674168Y148415021D02*
X44770930Y148511783D01*
X44770930Y148511783D02*
X44964454Y148608545D01*
X44964454Y148608545D02*
X45254739Y148608545D01*
X45254739Y148608545D02*
X45448263Y148511783D01*
X45448263Y148511783D02*
X45545025Y148318260D01*
X45545025Y148318260D02*
X45545025Y147253879D01*
X47770548Y149285879D02*
X48931691Y149285879D01*
X48351120Y147253879D02*
X48351120Y149285879D01*
X50383119Y147350640D02*
X50189595Y147253879D01*
X50189595Y147253879D02*
X49802548Y147253879D01*
X49802548Y147253879D02*
X49609024Y147350640D01*
X49609024Y147350640D02*
X49512262Y147544164D01*
X49512262Y147544164D02*
X49512262Y148318260D01*
X49512262Y148318260D02*
X49609024Y148511783D01*
X49609024Y148511783D02*
X49802548Y148608545D01*
X49802548Y148608545D02*
X50189595Y148608545D01*
X50189595Y148608545D02*
X50383119Y148511783D01*
X50383119Y148511783D02*
X50479881Y148318260D01*
X50479881Y148318260D02*
X50479881Y148124736D01*
X50479881Y148124736D02*
X49512262Y147931212D01*
X51253976Y147350640D02*
X51447500Y147253879D01*
X51447500Y147253879D02*
X51834548Y147253879D01*
X51834548Y147253879D02*
X52028071Y147350640D01*
X52028071Y147350640D02*
X52124833Y147544164D01*
X52124833Y147544164D02*
X52124833Y147640926D01*
X52124833Y147640926D02*
X52028071Y147834450D01*
X52028071Y147834450D02*
X51834548Y147931212D01*
X51834548Y147931212D02*
X51544262Y147931212D01*
X51544262Y147931212D02*
X51350738Y148027974D01*
X51350738Y148027974D02*
X51253976Y148221498D01*
X51253976Y148221498D02*
X51253976Y148318260D01*
X51253976Y148318260D02*
X51350738Y148511783D01*
X51350738Y148511783D02*
X51544262Y148608545D01*
X51544262Y148608545D02*
X51834548Y148608545D01*
X51834548Y148608545D02*
X52028071Y148511783D01*
X52705404Y148608545D02*
X53479500Y148608545D01*
X52995690Y149285879D02*
X52995690Y147544164D01*
X52995690Y147544164D02*
X53092452Y147350640D01*
X53092452Y147350640D02*
X53285976Y147253879D01*
X53285976Y147253879D02*
X53479500Y147253879D01*
X56382356Y148318260D02*
X56672642Y148221498D01*
X56672642Y148221498D02*
X56769404Y148124736D01*
X56769404Y148124736D02*
X56866166Y147931212D01*
X56866166Y147931212D02*
X56866166Y147640926D01*
X56866166Y147640926D02*
X56769404Y147447402D01*
X56769404Y147447402D02*
X56672642Y147350640D01*
X56672642Y147350640D02*
X56479118Y147253879D01*
X56479118Y147253879D02*
X55705023Y147253879D01*
X55705023Y147253879D02*
X55705023Y149285879D01*
X55705023Y149285879D02*
X56382356Y149285879D01*
X56382356Y149285879D02*
X56575880Y149189117D01*
X56575880Y149189117D02*
X56672642Y149092355D01*
X56672642Y149092355D02*
X56769404Y148898831D01*
X56769404Y148898831D02*
X56769404Y148705307D01*
X56769404Y148705307D02*
X56672642Y148511783D01*
X56672642Y148511783D02*
X56575880Y148415021D01*
X56575880Y148415021D02*
X56382356Y148318260D01*
X56382356Y148318260D02*
X55705023Y148318260D01*
X58027309Y147253879D02*
X57833785Y147350640D01*
X57833785Y147350640D02*
X57737023Y147447402D01*
X57737023Y147447402D02*
X57640261Y147640926D01*
X57640261Y147640926D02*
X57640261Y148221498D01*
X57640261Y148221498D02*
X57737023Y148415021D01*
X57737023Y148415021D02*
X57833785Y148511783D01*
X57833785Y148511783D02*
X58027309Y148608545D01*
X58027309Y148608545D02*
X58317594Y148608545D01*
X58317594Y148608545D02*
X58511118Y148511783D01*
X58511118Y148511783D02*
X58607880Y148415021D01*
X58607880Y148415021D02*
X58704642Y148221498D01*
X58704642Y148221498D02*
X58704642Y147640926D01*
X58704642Y147640926D02*
X58607880Y147447402D01*
X58607880Y147447402D02*
X58511118Y147350640D01*
X58511118Y147350640D02*
X58317594Y147253879D01*
X58317594Y147253879D02*
X58027309Y147253879D01*
X60446356Y147253879D02*
X60446356Y148318260D01*
X60446356Y148318260D02*
X60349594Y148511783D01*
X60349594Y148511783D02*
X60156070Y148608545D01*
X60156070Y148608545D02*
X59769023Y148608545D01*
X59769023Y148608545D02*
X59575499Y148511783D01*
X60446356Y147350640D02*
X60252832Y147253879D01*
X60252832Y147253879D02*
X59769023Y147253879D01*
X59769023Y147253879D02*
X59575499Y147350640D01*
X59575499Y147350640D02*
X59478737Y147544164D01*
X59478737Y147544164D02*
X59478737Y147737688D01*
X59478737Y147737688D02*
X59575499Y147931212D01*
X59575499Y147931212D02*
X59769023Y148027974D01*
X59769023Y148027974D02*
X60252832Y148027974D01*
X60252832Y148027974D02*
X60446356Y148124736D01*
X61413975Y147253879D02*
X61413975Y148608545D01*
X61413975Y148221498D02*
X61510737Y148415021D01*
X61510737Y148415021D02*
X61607499Y148511783D01*
X61607499Y148511783D02*
X61801023Y148608545D01*
X61801023Y148608545D02*
X61994546Y148608545D01*
X63542737Y147253879D02*
X63542737Y149285879D01*
X63542737Y147350640D02*
X63349213Y147253879D01*
X63349213Y147253879D02*
X62962166Y147253879D01*
X62962166Y147253879D02*
X62768642Y147350640D01*
X62768642Y147350640D02*
X62671880Y147447402D01*
X62671880Y147447402D02*
X62575118Y147640926D01*
X62575118Y147640926D02*
X62575118Y148221498D01*
X62575118Y148221498D02*
X62671880Y148415021D01*
X62671880Y148415021D02*
X62768642Y148511783D01*
X62768642Y148511783D02*
X62962166Y148608545D01*
X62962166Y148608545D02*
X63349213Y148608545D01*
X63349213Y148608545D02*
X63542737Y148511783D01*
X65961784Y149092355D02*
X66058546Y149189117D01*
X66058546Y149189117D02*
X66252070Y149285879D01*
X66252070Y149285879D02*
X66735879Y149285879D01*
X66735879Y149285879D02*
X66929403Y149189117D01*
X66929403Y149189117D02*
X67026165Y149092355D01*
X67026165Y149092355D02*
X67122927Y148898831D01*
X67122927Y148898831D02*
X67122927Y148705307D01*
X67122927Y148705307D02*
X67026165Y148415021D01*
X67026165Y148415021D02*
X65865022Y147253879D01*
X65865022Y147253879D02*
X67122927Y147253879D01*
X67993784Y147447402D02*
X68090546Y147350640D01*
X68090546Y147350640D02*
X67993784Y147253879D01*
X67993784Y147253879D02*
X67897022Y147350640D01*
X67897022Y147350640D02*
X67993784Y147447402D01*
X67993784Y147447402D02*
X67993784Y147253879D01*
X69348451Y149285879D02*
X69541974Y149285879D01*
X69541974Y149285879D02*
X69735498Y149189117D01*
X69735498Y149189117D02*
X69832260Y149092355D01*
X69832260Y149092355D02*
X69929022Y148898831D01*
X69929022Y148898831D02*
X70025784Y148511783D01*
X70025784Y148511783D02*
X70025784Y148027974D01*
X70025784Y148027974D02*
X69929022Y147640926D01*
X69929022Y147640926D02*
X69832260Y147447402D01*
X69832260Y147447402D02*
X69735498Y147350640D01*
X69735498Y147350640D02*
X69541974Y147253879D01*
X69541974Y147253879D02*
X69348451Y147253879D01*
X69348451Y147253879D02*
X69154927Y147350640D01*
X69154927Y147350640D02*
X69058165Y147447402D01*
X69058165Y147447402D02*
X68961403Y147640926D01*
X68961403Y147640926D02*
X68864641Y148027974D01*
X68864641Y148027974D02*
X68864641Y148511783D01*
X68864641Y148511783D02*
X68961403Y148898831D01*
X68961403Y148898831D02*
X69058165Y149092355D01*
X69058165Y149092355D02*
X69154927Y149189117D01*
X69154927Y149189117D02*
X69348451Y149285879D01*
X82000000Y134000000D02*
X153000000Y134000000D01*
X153000000Y1000000D01*
X82000000Y1000000D01*
X82000000Y134000000D01*
X7000000Y134000000D02*
X78000000Y134000000D01*
X78000000Y1000000D01*
X7000000Y1000000D01*
X7000000Y134000000D01*
D11*
X13964819Y45283334D02*
X13488628Y44950001D01*
X13964819Y44711906D02*
X12964819Y44711906D01*
X12964819Y44711906D02*
X12964819Y45092858D01*
X12964819Y45092858D02*
X13012438Y45188096D01*
X13012438Y45188096D02*
X13060057Y45235715D01*
X13060057Y45235715D02*
X13155295Y45283334D01*
X13155295Y45283334D02*
X13298152Y45283334D01*
X13298152Y45283334D02*
X13393390Y45235715D01*
X13393390Y45235715D02*
X13441009Y45188096D01*
X13441009Y45188096D02*
X13488628Y45092858D01*
X13488628Y45092858D02*
X13488628Y44711906D01*
X12964819Y46188096D02*
X12964819Y45711906D01*
X12964819Y45711906D02*
X13441009Y45664287D01*
X13441009Y45664287D02*
X13393390Y45711906D01*
X13393390Y45711906D02*
X13345771Y45807144D01*
X13345771Y45807144D02*
X13345771Y46045239D01*
X13345771Y46045239D02*
X13393390Y46140477D01*
X13393390Y46140477D02*
X13441009Y46188096D01*
X13441009Y46188096D02*
X13536247Y46235715D01*
X13536247Y46235715D02*
X13774342Y46235715D01*
X13774342Y46235715D02*
X13869580Y46188096D01*
X13869580Y46188096D02*
X13917200Y46140477D01*
X13917200Y46140477D02*
X13964819Y46045239D01*
X13964819Y46045239D02*
X13964819Y45807144D01*
X13964819Y45807144D02*
X13917200Y45711906D01*
X13917200Y45711906D02*
X13869580Y45664287D01*
X118104819Y103703334D02*
X117628628Y103370001D01*
X118104819Y103131906D02*
X117104819Y103131906D01*
X117104819Y103131906D02*
X117104819Y103512858D01*
X117104819Y103512858D02*
X117152438Y103608096D01*
X117152438Y103608096D02*
X117200057Y103655715D01*
X117200057Y103655715D02*
X117295295Y103703334D01*
X117295295Y103703334D02*
X117438152Y103703334D01*
X117438152Y103703334D02*
X117533390Y103655715D01*
X117533390Y103655715D02*
X117581009Y103608096D01*
X117581009Y103608096D02*
X117628628Y103512858D01*
X117628628Y103512858D02*
X117628628Y103131906D01*
X117438152Y104560477D02*
X118104819Y104560477D01*
X117057200Y104322382D02*
X117771485Y104084287D01*
X117771485Y104084287D02*
X117771485Y104703334D01*
X121914819Y104973334D02*
X121438628Y104640001D01*
X121914819Y104401906D02*
X120914819Y104401906D01*
X120914819Y104401906D02*
X120914819Y104782858D01*
X120914819Y104782858D02*
X120962438Y104878096D01*
X120962438Y104878096D02*
X121010057Y104925715D01*
X121010057Y104925715D02*
X121105295Y104973334D01*
X121105295Y104973334D02*
X121248152Y104973334D01*
X121248152Y104973334D02*
X121343390Y104925715D01*
X121343390Y104925715D02*
X121391009Y104878096D01*
X121391009Y104878096D02*
X121438628Y104782858D01*
X121438628Y104782858D02*
X121438628Y104401906D01*
X120914819Y105306668D02*
X120914819Y105925715D01*
X120914819Y105925715D02*
X121295771Y105592382D01*
X121295771Y105592382D02*
X121295771Y105735239D01*
X121295771Y105735239D02*
X121343390Y105830477D01*
X121343390Y105830477D02*
X121391009Y105878096D01*
X121391009Y105878096D02*
X121486247Y105925715D01*
X121486247Y105925715D02*
X121724342Y105925715D01*
X121724342Y105925715D02*
X121819580Y105878096D01*
X121819580Y105878096D02*
X121867200Y105830477D01*
X121867200Y105830477D02*
X121914819Y105735239D01*
X121914819Y105735239D02*
X121914819Y105449525D01*
X121914819Y105449525D02*
X121867200Y105354287D01*
X121867200Y105354287D02*
X121819580Y105306668D01*
X84930476Y101665181D02*
X84930476Y100950896D01*
X84930476Y100950896D02*
X84882857Y100808039D01*
X84882857Y100808039D02*
X84787619Y100712800D01*
X84787619Y100712800D02*
X84644762Y100665181D01*
X84644762Y100665181D02*
X84549524Y100665181D01*
X85930476Y100665181D02*
X85359048Y100665181D01*
X85644762Y100665181D02*
X85644762Y101665181D01*
X85644762Y101665181D02*
X85549524Y101522324D01*
X85549524Y101522324D02*
X85454286Y101427086D01*
X85454286Y101427086D02*
X85359048Y101379467D01*
X86549524Y101665181D02*
X86644762Y101665181D01*
X86644762Y101665181D02*
X86740000Y101617562D01*
X86740000Y101617562D02*
X86787619Y101569943D01*
X86787619Y101569943D02*
X86835238Y101474705D01*
X86835238Y101474705D02*
X86882857Y101284229D01*
X86882857Y101284229D02*
X86882857Y101046134D01*
X86882857Y101046134D02*
X86835238Y100855658D01*
X86835238Y100855658D02*
X86787619Y100760420D01*
X86787619Y100760420D02*
X86740000Y100712800D01*
X86740000Y100712800D02*
X86644762Y100665181D01*
X86644762Y100665181D02*
X86549524Y100665181D01*
X86549524Y100665181D02*
X86454286Y100712800D01*
X86454286Y100712800D02*
X86406667Y100760420D01*
X86406667Y100760420D02*
X86359048Y100855658D01*
X86359048Y100855658D02*
X86311429Y101046134D01*
X86311429Y101046134D02*
X86311429Y101284229D01*
X86311429Y101284229D02*
X86359048Y101474705D01*
X86359048Y101474705D02*
X86406667Y101569943D01*
X86406667Y101569943D02*
X86454286Y101617562D01*
X86454286Y101617562D02*
X86549524Y101665181D01*
X138746666Y105475181D02*
X138746666Y104760896D01*
X138746666Y104760896D02*
X138699047Y104618039D01*
X138699047Y104618039D02*
X138603809Y104522800D01*
X138603809Y104522800D02*
X138460952Y104475181D01*
X138460952Y104475181D02*
X138365714Y104475181D01*
X139651428Y105141848D02*
X139651428Y104475181D01*
X139413333Y105522800D02*
X139175238Y104808515D01*
X139175238Y104808515D02*
X139794285Y104808515D01*
X138746666Y33295181D02*
X138746666Y32580896D01*
X138746666Y32580896D02*
X138699047Y32438039D01*
X138699047Y32438039D02*
X138603809Y32342800D01*
X138603809Y32342800D02*
X138460952Y32295181D01*
X138460952Y32295181D02*
X138365714Y32295181D01*
X139365714Y32866610D02*
X139270476Y32914229D01*
X139270476Y32914229D02*
X139222857Y32961848D01*
X139222857Y32961848D02*
X139175238Y33057086D01*
X139175238Y33057086D02*
X139175238Y33104705D01*
X139175238Y33104705D02*
X139222857Y33199943D01*
X139222857Y33199943D02*
X139270476Y33247562D01*
X139270476Y33247562D02*
X139365714Y33295181D01*
X139365714Y33295181D02*
X139556190Y33295181D01*
X139556190Y33295181D02*
X139651428Y33247562D01*
X139651428Y33247562D02*
X139699047Y33199943D01*
X139699047Y33199943D02*
X139746666Y33104705D01*
X139746666Y33104705D02*
X139746666Y33057086D01*
X139746666Y33057086D02*
X139699047Y32961848D01*
X139699047Y32961848D02*
X139651428Y32914229D01*
X139651428Y32914229D02*
X139556190Y32866610D01*
X139556190Y32866610D02*
X139365714Y32866610D01*
X139365714Y32866610D02*
X139270476Y32818991D01*
X139270476Y32818991D02*
X139222857Y32771372D01*
X139222857Y32771372D02*
X139175238Y32676134D01*
X139175238Y32676134D02*
X139175238Y32485658D01*
X139175238Y32485658D02*
X139222857Y32390420D01*
X139222857Y32390420D02*
X139270476Y32342800D01*
X139270476Y32342800D02*
X139365714Y32295181D01*
X139365714Y32295181D02*
X139556190Y32295181D01*
X139556190Y32295181D02*
X139651428Y32342800D01*
X139651428Y32342800D02*
X139699047Y32390420D01*
X139699047Y32390420D02*
X139746666Y32485658D01*
X139746666Y32485658D02*
X139746666Y32676134D01*
X139746666Y32676134D02*
X139699047Y32771372D01*
X139699047Y32771372D02*
X139651428Y32818991D01*
X139651428Y32818991D02*
X139556190Y32866610D01*
X63816666Y33295181D02*
X63816666Y32580896D01*
X63816666Y32580896D02*
X63769047Y32438039D01*
X63769047Y32438039D02*
X63673809Y32342800D01*
X63673809Y32342800D02*
X63530952Y32295181D01*
X63530952Y32295181D02*
X63435714Y32295181D01*
X64197619Y33295181D02*
X64864285Y33295181D01*
X64864285Y33295181D02*
X64435714Y32295181D01*
X93026666Y33295181D02*
X93026666Y32580896D01*
X93026666Y32580896D02*
X92979047Y32438039D01*
X92979047Y32438039D02*
X92883809Y32342800D01*
X92883809Y32342800D02*
X92740952Y32295181D01*
X92740952Y32295181D02*
X92645714Y32295181D01*
X93931428Y33295181D02*
X93740952Y33295181D01*
X93740952Y33295181D02*
X93645714Y33247562D01*
X93645714Y33247562D02*
X93598095Y33199943D01*
X93598095Y33199943D02*
X93502857Y33057086D01*
X93502857Y33057086D02*
X93455238Y32866610D01*
X93455238Y32866610D02*
X93455238Y32485658D01*
X93455238Y32485658D02*
X93502857Y32390420D01*
X93502857Y32390420D02*
X93550476Y32342800D01*
X93550476Y32342800D02*
X93645714Y32295181D01*
X93645714Y32295181D02*
X93836190Y32295181D01*
X93836190Y32295181D02*
X93931428Y32342800D01*
X93931428Y32342800D02*
X93979047Y32390420D01*
X93979047Y32390420D02*
X94026666Y32485658D01*
X94026666Y32485658D02*
X94026666Y32723753D01*
X94026666Y32723753D02*
X93979047Y32818991D01*
X93979047Y32818991D02*
X93931428Y32866610D01*
X93931428Y32866610D02*
X93836190Y32914229D01*
X93836190Y32914229D02*
X93645714Y32914229D01*
X93645714Y32914229D02*
X93550476Y32866610D01*
X93550476Y32866610D02*
X93502857Y32818991D01*
X93502857Y32818991D02*
X93455238Y32723753D01*
X18096666Y33295181D02*
X18096666Y32580896D01*
X18096666Y32580896D02*
X18049047Y32438039D01*
X18049047Y32438039D02*
X17953809Y32342800D01*
X17953809Y32342800D02*
X17810952Y32295181D01*
X17810952Y32295181D02*
X17715714Y32295181D01*
X19049047Y33295181D02*
X18572857Y33295181D01*
X18572857Y33295181D02*
X18525238Y32818991D01*
X18525238Y32818991D02*
X18572857Y32866610D01*
X18572857Y32866610D02*
X18668095Y32914229D01*
X18668095Y32914229D02*
X18906190Y32914229D01*
X18906190Y32914229D02*
X19001428Y32866610D01*
X19001428Y32866610D02*
X19049047Y32818991D01*
X19049047Y32818991D02*
X19096666Y32723753D01*
X19096666Y32723753D02*
X19096666Y32485658D01*
X19096666Y32485658D02*
X19049047Y32390420D01*
X19049047Y32390420D02*
X19001428Y32342800D01*
X19001428Y32342800D02*
X18906190Y32295181D01*
X18906190Y32295181D02*
X18668095Y32295181D01*
X18668095Y32295181D02*
X18572857Y32342800D01*
X18572857Y32342800D02*
X18525238Y32390420D01*
X83814819Y138818334D02*
X83338628Y138485001D01*
X83814819Y138246906D02*
X82814819Y138246906D01*
X82814819Y138246906D02*
X82814819Y138627858D01*
X82814819Y138627858D02*
X82862438Y138723096D01*
X82862438Y138723096D02*
X82910057Y138770715D01*
X82910057Y138770715D02*
X83005295Y138818334D01*
X83005295Y138818334D02*
X83148152Y138818334D01*
X83148152Y138818334D02*
X83243390Y138770715D01*
X83243390Y138770715D02*
X83291009Y138723096D01*
X83291009Y138723096D02*
X83338628Y138627858D01*
X83338628Y138627858D02*
X83338628Y138246906D01*
X82910057Y139199287D02*
X82862438Y139246906D01*
X82862438Y139246906D02*
X82814819Y139342144D01*
X82814819Y139342144D02*
X82814819Y139580239D01*
X82814819Y139580239D02*
X82862438Y139675477D01*
X82862438Y139675477D02*
X82910057Y139723096D01*
X82910057Y139723096D02*
X83005295Y139770715D01*
X83005295Y139770715D02*
X83100533Y139770715D01*
X83100533Y139770715D02*
X83243390Y139723096D01*
X83243390Y139723096D02*
X83814819Y139151668D01*
X83814819Y139151668D02*
X83814819Y139770715D01*
X80004819Y138818334D02*
X79528628Y138485001D01*
X80004819Y138246906D02*
X79004819Y138246906D01*
X79004819Y138246906D02*
X79004819Y138627858D01*
X79004819Y138627858D02*
X79052438Y138723096D01*
X79052438Y138723096D02*
X79100057Y138770715D01*
X79100057Y138770715D02*
X79195295Y138818334D01*
X79195295Y138818334D02*
X79338152Y138818334D01*
X79338152Y138818334D02*
X79433390Y138770715D01*
X79433390Y138770715D02*
X79481009Y138723096D01*
X79481009Y138723096D02*
X79528628Y138627858D01*
X79528628Y138627858D02*
X79528628Y138246906D01*
X80004819Y139770715D02*
X80004819Y139199287D01*
X80004819Y139485001D02*
X79004819Y139485001D01*
X79004819Y139485001D02*
X79147676Y139389763D01*
X79147676Y139389763D02*
X79242914Y139294525D01*
X79242914Y139294525D02*
X79290533Y139199287D01*
X80326523Y140896820D02*
X80326523Y141611105D01*
X80326523Y141611105D02*
X80374142Y141753962D01*
X80374142Y141753962D02*
X80469380Y141849200D01*
X80469380Y141849200D02*
X80612237Y141896820D01*
X80612237Y141896820D02*
X80707475Y141896820D01*
X79326523Y141896820D02*
X79897951Y141896820D01*
X79612237Y141896820D02*
X79612237Y140896820D01*
X79612237Y140896820D02*
X79707475Y141039677D01*
X79707475Y141039677D02*
X79802713Y141134915D01*
X79802713Y141134915D02*
X79897951Y141182534D01*
X78374142Y141896820D02*
X78945570Y141896820D01*
X78659856Y141896820D02*
X78659856Y140896820D01*
X78659856Y140896820D02*
X78755094Y141039677D01*
X78755094Y141039677D02*
X78850332Y141134915D01*
X78850332Y141134915D02*
X78945570Y141182534D01*
X11746666Y102105181D02*
X11746666Y101390896D01*
X11746666Y101390896D02*
X11699047Y101248039D01*
X11699047Y101248039D02*
X11603809Y101152800D01*
X11603809Y101152800D02*
X11460952Y101105181D01*
X11460952Y101105181D02*
X11365714Y101105181D01*
X12270476Y101105181D02*
X12460952Y101105181D01*
X12460952Y101105181D02*
X12556190Y101152800D01*
X12556190Y101152800D02*
X12603809Y101200420D01*
X12603809Y101200420D02*
X12699047Y101343277D01*
X12699047Y101343277D02*
X12746666Y101533753D01*
X12746666Y101533753D02*
X12746666Y101914705D01*
X12746666Y101914705D02*
X12699047Y102009943D01*
X12699047Y102009943D02*
X12651428Y102057562D01*
X12651428Y102057562D02*
X12556190Y102105181D01*
X12556190Y102105181D02*
X12365714Y102105181D01*
X12365714Y102105181D02*
X12270476Y102057562D01*
X12270476Y102057562D02*
X12222857Y102009943D01*
X12222857Y102009943D02*
X12175238Y101914705D01*
X12175238Y101914705D02*
X12175238Y101676610D01*
X12175238Y101676610D02*
X12222857Y101581372D01*
X12222857Y101581372D02*
X12270476Y101533753D01*
X12270476Y101533753D02*
X12365714Y101486134D01*
X12365714Y101486134D02*
X12556190Y101486134D01*
X12556190Y101486134D02*
X12651428Y101533753D01*
X12651428Y101533753D02*
X12699047Y101581372D01*
X12699047Y101581372D02*
X12746666Y101676610D01*
X93026666Y96585181D02*
X93026666Y95870896D01*
X93026666Y95870896D02*
X92979047Y95728039D01*
X92979047Y95728039D02*
X92883809Y95632800D01*
X92883809Y95632800D02*
X92740952Y95585181D01*
X92740952Y95585181D02*
X92645714Y95585181D01*
X93455238Y96489943D02*
X93502857Y96537562D01*
X93502857Y96537562D02*
X93598095Y96585181D01*
X93598095Y96585181D02*
X93836190Y96585181D01*
X93836190Y96585181D02*
X93931428Y96537562D01*
X93931428Y96537562D02*
X93979047Y96489943D01*
X93979047Y96489943D02*
X94026666Y96394705D01*
X94026666Y96394705D02*
X94026666Y96299467D01*
X94026666Y96299467D02*
X93979047Y96156610D01*
X93979047Y96156610D02*
X93407619Y95585181D01*
X93407619Y95585181D02*
X94026666Y95585181D01*
X10684819Y38361906D02*
X9684819Y38361906D01*
X9684819Y38361906D02*
X9684819Y38600001D01*
X9684819Y38600001D02*
X9732438Y38742858D01*
X9732438Y38742858D02*
X9827676Y38838096D01*
X9827676Y38838096D02*
X9922914Y38885715D01*
X9922914Y38885715D02*
X10113390Y38933334D01*
X10113390Y38933334D02*
X10256247Y38933334D01*
X10256247Y38933334D02*
X10446723Y38885715D01*
X10446723Y38885715D02*
X10541961Y38838096D01*
X10541961Y38838096D02*
X10637200Y38742858D01*
X10637200Y38742858D02*
X10684819Y38600001D01*
X10684819Y38600001D02*
X10684819Y38361906D01*
X9780057Y39314287D02*
X9732438Y39361906D01*
X9732438Y39361906D02*
X9684819Y39457144D01*
X9684819Y39457144D02*
X9684819Y39695239D01*
X9684819Y39695239D02*
X9732438Y39790477D01*
X9732438Y39790477D02*
X9780057Y39838096D01*
X9780057Y39838096D02*
X9875295Y39885715D01*
X9875295Y39885715D02*
X9970533Y39885715D01*
X9970533Y39885715D02*
X10113390Y39838096D01*
X10113390Y39838096D02*
X10684819Y39266668D01*
X10684819Y39266668D02*
X10684819Y39885715D01*
X85614819Y38361906D02*
X84614819Y38361906D01*
X84614819Y38361906D02*
X84614819Y38600001D01*
X84614819Y38600001D02*
X84662438Y38742858D01*
X84662438Y38742858D02*
X84757676Y38838096D01*
X84757676Y38838096D02*
X84852914Y38885715D01*
X84852914Y38885715D02*
X85043390Y38933334D01*
X85043390Y38933334D02*
X85186247Y38933334D01*
X85186247Y38933334D02*
X85376723Y38885715D01*
X85376723Y38885715D02*
X85471961Y38838096D01*
X85471961Y38838096D02*
X85567200Y38742858D01*
X85567200Y38742858D02*
X85614819Y38600001D01*
X85614819Y38600001D02*
X85614819Y38361906D01*
X85614819Y39885715D02*
X85614819Y39314287D01*
X85614819Y39600001D02*
X84614819Y39600001D01*
X84614819Y39600001D02*
X84757676Y39504763D01*
X84757676Y39504763D02*
X84852914Y39409525D01*
X84852914Y39409525D02*
X84900533Y39314287D01*
X63816666Y105475181D02*
X63816666Y104760896D01*
X63816666Y104760896D02*
X63769047Y104618039D01*
X63769047Y104618039D02*
X63673809Y104522800D01*
X63673809Y104522800D02*
X63530952Y104475181D01*
X63530952Y104475181D02*
X63435714Y104475181D01*
X64197619Y105475181D02*
X64816666Y105475181D01*
X64816666Y105475181D02*
X64483333Y105094229D01*
X64483333Y105094229D02*
X64626190Y105094229D01*
X64626190Y105094229D02*
X64721428Y105046610D01*
X64721428Y105046610D02*
X64769047Y104998991D01*
X64769047Y104998991D02*
X64816666Y104903753D01*
X64816666Y104903753D02*
X64816666Y104665658D01*
X64816666Y104665658D02*
X64769047Y104570420D01*
X64769047Y104570420D02*
X64721428Y104522800D01*
X64721428Y104522800D02*
X64626190Y104475181D01*
X64626190Y104475181D02*
X64340476Y104475181D01*
X64340476Y104475181D02*
X64245238Y104522800D01*
X64245238Y104522800D02*
X64197619Y104570420D01*
X18096666Y96585181D02*
X18096666Y95870896D01*
X18096666Y95870896D02*
X18049047Y95728039D01*
X18049047Y95728039D02*
X17953809Y95632800D01*
X17953809Y95632800D02*
X17810952Y95585181D01*
X17810952Y95585181D02*
X17715714Y95585181D01*
X19096666Y95585181D02*
X18525238Y95585181D01*
X18810952Y95585181D02*
X18810952Y96585181D01*
X18810952Y96585181D02*
X18715714Y96442324D01*
X18715714Y96442324D02*
X18620476Y96347086D01*
X18620476Y96347086D02*
X18525238Y96299467D01*
D12*
%TO.C,R5*%
X12602500Y45687258D02*
X12602500Y45212742D01*
X11557500Y45687258D02*
X11557500Y45212742D01*
%TO.C,R4*%
X116742500Y104107258D02*
X116742500Y103632742D01*
X115697500Y104107258D02*
X115697500Y103632742D01*
%TO.C,R3*%
X120552500Y105377258D02*
X120552500Y104902742D01*
X119507500Y105377258D02*
X119507500Y104902742D01*
%TO.C,J10*%
X83140000Y100120000D02*
X84470000Y100120000D01*
X83140000Y98790000D02*
X83140000Y100120000D01*
X83140000Y97520000D02*
X83140000Y94920000D01*
X83140000Y97520000D02*
X85740000Y97520000D01*
X83140000Y94920000D02*
X88340000Y94920000D01*
X85740000Y100120000D02*
X88340000Y100120000D01*
X85740000Y97520000D02*
X85740000Y100120000D01*
X88340000Y100120000D02*
X88340000Y94920000D01*
%TO.C,J4*%
X136480000Y103930000D02*
X137810000Y103930000D01*
X136480000Y102600000D02*
X136480000Y103930000D01*
X136480000Y101330000D02*
X136480000Y78410000D01*
X136480000Y101330000D02*
X139080000Y101330000D01*
X136480000Y78410000D02*
X141680000Y78410000D01*
X139080000Y103930000D02*
X141680000Y103930000D01*
X139080000Y101330000D02*
X139080000Y103930000D01*
X141680000Y103930000D02*
X141680000Y78410000D01*
%TO.C,J8*%
X136480000Y77260000D02*
X137810000Y77260000D01*
X136480000Y75930000D02*
X136480000Y77260000D01*
X136480000Y74660000D02*
X136480000Y33960000D01*
X136480000Y74660000D02*
X139080000Y74660000D01*
X136480000Y33960000D02*
X141680000Y33960000D01*
X139080000Y77260000D02*
X141680000Y77260000D01*
X139080000Y74660000D02*
X139080000Y77260000D01*
X141680000Y77260000D02*
X141680000Y33960000D01*
%TO.C,J7*%
X61550000Y77260000D02*
X62880000Y77260000D01*
X61550000Y75930000D02*
X61550000Y77260000D01*
X61550000Y74660000D02*
X61550000Y33960000D01*
X61550000Y74660000D02*
X64150000Y74660000D01*
X61550000Y33960000D02*
X66750000Y33960000D01*
X64150000Y77260000D02*
X66750000Y77260000D01*
X64150000Y74660000D02*
X64150000Y77260000D01*
X66750000Y77260000D02*
X66750000Y33960000D01*
%TO.C,J6*%
X90760000Y72180000D02*
X92090000Y72180000D01*
X90760000Y70850000D02*
X90760000Y72180000D01*
X90760000Y69580000D02*
X90760000Y33960000D01*
X90760000Y69580000D02*
X93360000Y69580000D01*
X90760000Y33960000D02*
X95960000Y33960000D01*
X93360000Y72180000D02*
X95960000Y72180000D01*
X93360000Y69580000D02*
X93360000Y72180000D01*
X95960000Y72180000D02*
X95960000Y33960000D01*
%TO.C,J5*%
X15830000Y72180000D02*
X17160000Y72180000D01*
X15830000Y70850000D02*
X15830000Y72180000D01*
X15830000Y69580000D02*
X15830000Y33960000D01*
X15830000Y69580000D02*
X18430000Y69580000D01*
X15830000Y33960000D02*
X21030000Y33960000D01*
X18430000Y72180000D02*
X21030000Y72180000D01*
X18430000Y69580000D02*
X18430000Y72180000D01*
X21030000Y72180000D02*
X21030000Y33960000D01*
%TO.C,R2*%
X81407500Y139222258D02*
X81407500Y138747742D01*
X82452500Y139222258D02*
X82452500Y138747742D01*
%TO.C,R1*%
X77597500Y139222258D02*
X77597500Y138747742D01*
X78642500Y139222258D02*
X78642500Y138747742D01*
%TO.C,JP8*%
X134130000Y78740000D02*
X131330000Y78740000D01*
X134130000Y80740000D02*
X134130000Y78740000D01*
X131330000Y78740000D02*
X131330000Y80740000D01*
X131330000Y80740000D02*
X134130000Y80740000D01*
%TO.C,JP7*%
X134130000Y81280000D02*
X131330000Y81280000D01*
X134130000Y83280000D02*
X134130000Y81280000D01*
X131330000Y81280000D02*
X131330000Y83280000D01*
X131330000Y83280000D02*
X134130000Y83280000D01*
%TO.C,JP6*%
X134130000Y83820000D02*
X131330000Y83820000D01*
X134130000Y85820000D02*
X134130000Y83820000D01*
X131330000Y83820000D02*
X131330000Y85820000D01*
X131330000Y85820000D02*
X134130000Y85820000D01*
%TO.C,JP5*%
X134130000Y86360000D02*
X131330000Y86360000D01*
X134130000Y88360000D02*
X134130000Y86360000D01*
X131330000Y86360000D02*
X131330000Y88360000D01*
X131330000Y88360000D02*
X134130000Y88360000D01*
%TO.C,JP4*%
X144030000Y93440000D02*
X146830000Y93440000D01*
X144030000Y91440000D02*
X144030000Y93440000D01*
X146830000Y93440000D02*
X146830000Y91440000D01*
X146830000Y91440000D02*
X144030000Y91440000D01*
%TO.C,JP3*%
X146830000Y88900000D02*
X144030000Y88900000D01*
X146830000Y90900000D02*
X146830000Y88900000D01*
X144030000Y88900000D02*
X144030000Y90900000D01*
X144030000Y90900000D02*
X146830000Y90900000D01*
%TO.C,JP2*%
X146830000Y86360000D02*
X144030000Y86360000D01*
X146830000Y88360000D02*
X146830000Y86360000D01*
X144030000Y86360000D02*
X144030000Y88360000D01*
X144030000Y88360000D02*
X146830000Y88360000D01*
%TO.C,JP1*%
X146830000Y83820000D02*
X144030000Y83820000D01*
X146830000Y85820000D02*
X146830000Y83820000D01*
X144030000Y83820000D02*
X144030000Y85820000D01*
X144030000Y85820000D02*
X146830000Y85820000D01*
%TO.C,J11*%
X74847000Y146292000D02*
X74847000Y144592000D01*
X84187000Y146292000D02*
X84187000Y144592000D01*
%TO.C,J9*%
X13410000Y97520000D02*
X13410000Y94920000D01*
X13410000Y100120000D02*
X13410000Y98790000D01*
X12080000Y100120000D02*
X13410000Y100120000D01*
X10750000Y94920000D02*
X13410000Y94920000D01*
X10750000Y97520000D02*
X13410000Y97520000D01*
X10750000Y97520000D02*
X10750000Y94920000D01*
%TO.C,J2*%
X90760000Y95040000D02*
X92090000Y95040000D01*
X90760000Y93710000D02*
X90760000Y95040000D01*
X90760000Y92440000D02*
X90760000Y74600000D01*
X90760000Y92440000D02*
X93360000Y92440000D01*
X90760000Y74600000D02*
X95960000Y74600000D01*
X93360000Y95040000D02*
X95960000Y95040000D01*
X93360000Y92440000D02*
X93360000Y95040000D01*
X95960000Y95040000D02*
X95960000Y74600000D01*
%TO.C,D2*%
X12930000Y37490000D02*
X12930000Y40150000D01*
X11230000Y37490000D02*
X11230000Y40150000D01*
X11230000Y37490000D02*
X12930000Y37490000D01*
%TO.C,D1*%
X87860000Y37490000D02*
X87860000Y40150000D01*
X86160000Y37490000D02*
X86160000Y40150000D01*
X86160000Y37490000D02*
X87860000Y37490000D01*
%TO.C,J3*%
X61550000Y103930000D02*
X62880000Y103930000D01*
X61550000Y102600000D02*
X61550000Y103930000D01*
X61550000Y101330000D02*
X61550000Y78410000D01*
X61550000Y101330000D02*
X64150000Y101330000D01*
X61550000Y78410000D02*
X66750000Y78410000D01*
X64150000Y103930000D02*
X66750000Y103930000D01*
X64150000Y101330000D02*
X64150000Y103930000D01*
X66750000Y103930000D02*
X66750000Y78410000D01*
%TO.C,J1*%
X15830000Y95040000D02*
X17160000Y95040000D01*
X15830000Y93710000D02*
X15830000Y95040000D01*
X15830000Y92440000D02*
X15830000Y74600000D01*
X15830000Y92440000D02*
X18430000Y92440000D01*
X15830000Y74600000D02*
X21030000Y74600000D01*
X18430000Y95040000D02*
X21030000Y95040000D01*
X18430000Y92440000D02*
X18430000Y95040000D01*
X21030000Y95040000D02*
X21030000Y74600000D01*
%TD*%
M02*
